<svg width="24" height="24" viewBox="0 0 24 24" fill="none" xmlns="http://www.w3.org/2000/svg">
<path d="M22.6502 7.38745C22.2002 6.93745 21.6002 6.67495 20.9627 6.67495H18.2252V5.21245C18.2252 4.79995 18.0752 3.82495 16.6502 3.82495H7.2752C5.92519 3.82495 5.7752 4.79995 5.7752 5.21245V6.67495H3.0377C1.7252 6.67495 0.637695 7.76245 0.637695 9.07495V17.775C0.637695 19.0875 1.7252 20.1749 3.0377 20.1749H20.9252C22.2377 20.1749 23.3252 19.0875 23.3252 17.775V9.07495C23.3627 8.43745 23.1002 7.83745 22.6502 7.38745ZM21.6377 17.775C21.6377 18.15 21.3377 18.4874 20.9252 18.4874H3.0377C2.6627 18.4874 2.3252 18.1875 2.3252 17.775V9.07495C2.3252 8.69995 2.6252 8.36245 3.0377 8.36245H6.2252C6.9002 8.36245 7.4627 7.79995 7.4627 7.12495V5.51245H16.5002V7.12495C16.5002 7.79995 17.0627 8.36245 17.7377 8.36245H20.9627C21.1502 8.36245 21.3377 8.43745 21.4502 8.58745C21.6002 8.73745 21.6377 8.88745 21.6377 9.07495V17.775Z" fill="#111928"/>
<path d="M11.8502 8.8125C9.9002 8.8125 8.3252 10.3875 8.3252 12.375C8.3252 14.325 9.8627 15.8625 11.8502 15.8625C13.8002 15.8625 15.3752 14.2875 15.3752 12.375C15.3752 10.4625 13.7627 8.8125 11.8502 8.8125ZM11.8502 14.175C10.8002 14.175 10.0127 13.3875 10.0127 12.375C10.0127 11.3625 10.8377 10.5 11.8502 10.5C12.8627 10.5 13.6877 11.3625 13.6877 12.375C13.6877 13.3875 12.8627 14.175 11.8502 14.175Z" fill="#111928"/>
<path d="M5.1752 9.48755H4.3127C3.8627 9.48755 3.4502 9.86255 3.4502 10.35C3.4502 10.8375 3.8252 11.2125 4.3127 11.2125H5.1752C5.6252 11.2125 6.0377 10.8375 6.0377 10.35C6.0377 9.86255 5.6627 9.48755 5.1752 9.48755Z" fill="#111928"/>
</svg>
