<svg width="24" height="24" viewBox="0 0 24 24" fill="none" xmlns="http://www.w3.org/2000/svg">
<path d="M21.0002 4.9126H3.0002C1.6877 4.9126 0.637695 5.9626 0.637695 7.2751V16.7251C0.637695 18.0376 1.6877 19.0876 3.0002 19.0876H21.0002C22.3127 19.0876 23.3627 18.0376 23.3627 16.7251V7.2751C23.3252 5.9626 22.2752 4.9126 21.0002 4.9126ZM21.6752 16.7251C21.6752 17.1001 21.3752 17.4001 21.0002 17.4001H3.0002C2.6252 17.4001 2.3252 17.1001 2.3252 16.7251V7.2751C2.3252 6.9001 2.6252 6.6001 3.0002 6.6001H21.0002C21.3752 6.6001 21.6752 6.9001 21.6752 7.2751V16.7251Z" fill="#111928"/>
<path d="M5.8876 7.6875H4.6126C4.1626 7.6875 3.7876 8.0625 3.7876 8.5125C3.7876 8.9625 4.1626 9.3375 4.6126 9.3375H5.8876C6.3376 9.3375 6.7126 8.9625 6.7126 8.5125C6.7126 8.0625 6.3376 7.6875 5.8876 7.6875Z" fill="#111928"/>
<path d="M19.4252 14.7002H18.1502C17.7002 14.7002 17.3252 15.0752 17.3252 15.5252C17.3252 15.9752 17.7002 16.3502 18.1502 16.3502H19.4252C19.8752 16.3502 20.2502 15.9752 20.2502 15.5252C20.2502 15.0752 19.8752 14.7002 19.4252 14.7002Z" fill="#111928"/>
<path d="M14.7377 13.3127H12.8627V12.6377H14.5877C15.0377 12.6377 15.4127 12.2627 15.4127 11.8127C15.4127 11.3627 15.0377 10.9877 14.5877 10.9877H12.8627V10.6877L14.4752 9.0752C14.8127 8.7377 14.8127 8.2127 14.4752 7.8752C14.1377 7.5377 13.6127 7.5377 13.2752 7.8752L12.0002 9.1502L10.7252 7.8752C10.3877 7.5377 9.86269 7.5377 9.52519 7.8752C9.18769 8.2127 9.18769 8.7377 9.52519 9.0752L11.1377 10.6877V10.9877H9.48769C9.03769 10.9877 8.6627 11.3627 8.6627 11.8127C8.6627 12.2627 9.03769 12.6377 9.48769 12.6377H11.1377V13.3127H9.33769C8.88769 13.3127 8.5127 13.6877 8.5127 14.1377C8.5127 14.5877 8.88769 14.9627 9.33769 14.9627H11.1377V15.7502C11.1377 16.2002 11.5127 16.5752 11.9627 16.5752C12.4127 16.5752 12.7877 16.2002 12.7877 15.7502V15.0002H14.6627C15.1127 15.0002 15.4877 14.6252 15.4877 14.1752C15.4877 13.7252 15.2252 13.3127 14.7377 13.3127Z" fill="#111928"/>
</svg>
