<svg width="24" height="24" viewBox="0 0 24 24" fill="none" xmlns="http://www.w3.org/2000/svg">
<path d="M21.7877 11.1375H21.4127V4.27498C21.4127 2.77498 20.1752 1.53748 18.6752 1.53748H5.28769C3.7877 1.53748 2.5502 2.77498 2.5502 4.27498V11.1375H2.1752C1.3127 11.1375 0.637695 11.8125 0.637695 12.675V19.6875C0.637695 21.1875 1.8752 22.425 3.3752 22.425H20.6252C21.3377 22.425 22.0502 22.125 22.5377 21.6375C23.0627 21.1125 23.3252 20.4375 23.3252 19.6875V12.675C23.3627 11.85 22.6502 11.1375 21.7877 11.1375ZM4.2377 7.61248C4.5377 7.72498 4.8002 7.87498 5.1002 8.06248C5.66269 8.43748 6.37519 8.84998 7.68769 8.84998C9.00019 8.84998 9.71269 8.39998 10.2752 8.06248C10.7627 7.76248 11.1377 7.49998 11.9627 7.49998C12.7877 7.49998 13.1627 7.72498 13.6502 8.06248C14.2127 8.43748 14.9252 8.84998 16.2377 8.84998C17.5502 8.84998 18.2627 8.39998 18.8252 8.06248C19.1252 7.87498 19.3502 7.72498 19.6877 7.61248V11.175H4.2377V7.61248ZM5.28769 3.26248H18.7127C19.2752 3.26248 19.7627 3.71248 19.7627 4.31248V5.88748C18.9752 6.03748 18.4502 6.33748 18.0002 6.63748C17.5127 6.93748 17.1377 7.19998 16.3127 7.19998C15.4877 7.19998 15.1127 6.97498 14.6252 6.63748C14.0627 6.26248 13.3502 5.84998 12.0377 5.84998C10.7252 5.84998 10.0127 6.29998 9.45019 6.63748C8.9627 6.93748 8.58769 7.19998 7.76269 7.19998C6.9377 7.19998 6.5627 6.97498 6.0752 6.63748C5.6252 6.37498 5.13769 6.03748 4.3127 5.88748V4.31248C4.23769 3.71248 4.7252 3.26248 5.28769 3.26248ZM2.5502 12.825H21.4127H21.6377V15.0375C20.6252 15.1875 19.9877 15.5625 19.4252 15.9375C18.8252 16.3125 18.3002 16.6125 17.2502 16.6125C16.1627 16.6125 15.6752 16.3125 15.0752 15.9375C14.3627 15.4875 13.5752 15 12.0002 15C10.4252 15 9.63769 15.4875 8.92519 15.9375C8.32519 16.3125 7.80019 16.6125 6.75019 16.6125C5.70019 16.6125 5.17519 16.3125 4.5752 15.9375C4.0127 15.5625 3.3752 15.1875 2.3627 15.0375V12.825H2.5502ZM21.3377 20.4375C21.1502 20.625 20.8877 20.7375 20.5877 20.7375H3.3752C2.8127 20.7375 2.3252 20.25 2.3252 19.6875V16.7625C2.8502 16.875 3.2252 17.1 3.6752 17.3625C4.3877 17.8125 5.17519 18.3 6.75019 18.3C8.32519 18.3 9.11269 17.8125 9.82519 17.3625C10.4252 16.9875 10.9502 16.6875 12.0002 16.6875C13.0877 16.6875 13.5752 16.9875 14.1752 17.3625C14.8877 17.8125 15.6752 18.3 17.2502 18.3C18.7877 18.3 19.6127 17.8125 20.3252 17.3625C20.7377 17.1 21.1127 16.875 21.6752 16.7625V19.6875C21.6752 19.9875 21.5627 20.25 21.3377 20.4375Z" fill="#111928"/>
</svg>
