<svg width="24" height="24" viewBox="0 0 24 24" fill="none" xmlns="http://www.w3.org/2000/svg">
<path d="M18.4502 12.7501C17.3252 11.4001 15.9002 10.4626 14.3252 9.9751C15.9002 9.1501 16.9502 7.5001 16.9502 5.5876C16.9502 2.8501 14.7377 0.600098 11.9627 0.600098C9.1877 0.600098 7.0127 2.8876 7.0127 5.6251C7.0127 7.5001 8.0627 9.1501 9.6377 10.0126C8.0627 10.5001 6.6752 11.4376 5.5127 12.7876C3.8627 14.7376 2.9252 17.4376 2.8877 20.4001C2.8877 20.7376 3.0752 21.0376 3.3377 21.1501C4.3502 21.6751 8.0252 23.3251 11.9627 23.3251C16.2377 23.3251 19.6502 21.6376 20.6252 21.1126C20.8877 20.9626 21.0752 20.6626 21.0752 20.3626C21.0377 17.4376 20.1002 14.7376 18.4502 12.7501ZM12.0002 2.3626C13.8002 2.3626 15.3002 3.8251 15.3002 5.6626C15.3002 7.5001 13.8377 8.9626 12.0002 8.9626C10.1627 8.9626 8.7002 7.5001 8.7002 5.6626C8.7002 3.8251 10.2002 2.3626 12.0002 2.3626ZM12.0002 21.6751C8.88769 21.6751 5.8502 20.4751 4.6127 19.8751C4.7627 17.5126 5.5127 15.4126 6.8252 13.8376C8.1752 12.2251 10.0127 11.3251 12.0002 11.3251C13.9877 11.3251 15.8252 12.2251 17.1752 13.8376C18.4877 15.3751 19.2752 17.5126 19.3877 19.8751C18.2252 20.4751 15.3752 21.6751 12.0002 21.6751Z" fill="#111928"/>
</svg>
